<?xml version="1.0" encoding="UTF-8"?>
<svg id="AW" xmlns="http://www.w3.org/2000/svg" xmlns:xlink="http://www.w3.org/1999/xlink" viewBox="0 0 512 512">
  <defs>
    <linearGradient id="linear-gradient" x1="256" y1="-61.06" x2="256" y2="844.52" gradientTransform="translate(512 0) rotate(90)" gradientUnits="userSpaceOnUse">
      <stop offset=".19" stop-color="#871fff"/>
      <stop offset="1" stop-color="#00005e"/>
    </linearGradient>
  </defs>
  <rect x="6" y="6" width="500" height="500" rx="56.38" ry="56.38" transform="translate(0 512) rotate(-90)" style="fill: url(#linear-gradient);"/>
  <g>
    <g>
      <rect x="61.13" y="76.47" width="149.54" height="29.65" rx="14.83" ry="14.83" style="fill: #031133;"/>
      <rect x="61.13" y="145.83" width="102.9" height="29.65" rx="14.83" ry="14.83" style="fill: #031133;"/>
      <rect x="61.13" y="215.18" width="56.26" height="29.65" rx="14.83" ry="14.83" style="fill: #031133;"/>
      <rect x="61.13" y="76.47" width="139.93" height="29.65" rx="14.83" ry="14.83" style="fill: #fff;"/>
      <rect x="61.13" y="145.83" width="93.29" height="29.65" rx="14.83" ry="14.83" style="fill: #fff;"/>
      <rect x="61.13" y="215.18" width="46.64" height="29.65" rx="14.83" ry="14.83" style="fill: #fff;"/>
    </g>
    <g>
      <rect x="301.92" y="405.12" width="149.54" height="29.65" rx="14.83" ry="14.83" transform="translate(753.38 839.9) rotate(180)" style="fill: #031133;"/>
      <rect x="348.56" y="335.77" width="102.9" height="29.65" rx="14.83" ry="14.83" transform="translate(800.02 701.19) rotate(180)" style="fill: #031133;"/>
      <rect x="311.53" y="405.12" width="139.93" height="29.65" rx="14.83" ry="14.83" transform="translate(762.99 839.9) rotate(180)" style="fill: #fff;"/>
      <rect x="358.17" y="335.77" width="93.29" height="29.65" rx="14.83" ry="14.83" transform="translate(809.64 701.19) rotate(180)" style="fill: #fff;"/>
    </g>
  </g>
  <path d="M351.68,191.96s24.57,12.11,66.36-8.06c-3.22,4.24-12.96,22.53-39.01,35.05-18.67,8.98-33.44,13.47-60.53,19.52,0,0,28.27,14.57,66.23-5.43-29.64,43.26-53.21,56.9-132.88,80.78,0,0,19.82,12.09,61.09-5.89-7.81,11.57-18.67,19.81-26.67,26.36-25.74,21.09-41.93,19.65-92.41,26.52-9.96,21.86-18.61,44.08-23.16,66.66-1.83,10.93-6.57,20.49-15.15,30.05l-2.56.49c-2.56-5.38-3.3-10.97-3.31-16.59,0-1.59.04-3.17.16-4.76,2.48-21.31,11.16-39.56,19.81-60,2.23-5.2,4.58-10.4,7.02-15.55,2.58-5.45,5.25-10.89,8.05-16.27,4.75-9.3,9.81-18.51,15.15-27.62,5.25-8.96,10.75-17.85,16.52-26.63,2.62-4.35,5.29-8.68,8.04-13,5.92-9.44,12.09-18.79,18.46-28.08,9.28-13.54,18.95-26.94,28.92-40.21,7.21-9.58,14.54-19.11,21.99-28.56,8.29-10.54,16.71-20.99,25.2-31.42l-2.96-4.01c-11.11,11.14-21.93,22.43-32.45,33.9-8.8,9.59-17.39,19.27-25.76,29.08-2.06,2.37-4.07,4.75-6.08,7.14-9.24,11.02-18.14,22.22-26.61,33.58-6.98,9.32-13.66,18.76-20.07,28.3-8.74,13.01-16.94,26.22-24.54,39.62-5.16,9.09-10.06,18.28-14.66,27.56-.11.19-.2.36-.28.55-.07-.17-.11-.32-.16-.49-2.42-6.69-1.51-26.16-.89-36.13.63-10.85,3.6-23.3,7.57-37.3,13.9-49.03,47.15-87.85,54.64-97.2,54.13-67.7,143.46-128.01,187.49-119.71,20.59,3.88,24.01,18.78,25.97,23.85.11.3.22.61.35.89,26.84,69.91-76.02,107.15-88.85,113.01Z" style="fill: #fff;"/>
</svg>